<svg width="1280" height="720" xmlns="http://www.w3.org/2000/svg" xmlns:xlink="http://www.w3.org/1999/xlink" overflow="hidden"><g><rect x="0" y="0" width="1280" height="720" fill="#FFFFFF"/><rect x="0" y="0" width="21" height="720" fill="#1A4568"/><text font-family="Calibri,Calibri_MSFontService,sans-serif" font-weight="700" font-size="43" transform="translate(45.1954 46)">Information</text><rect x="36" y="62" width="12" height="259" fill="#5F84A1"/><rect x="36.5001" y="62.5001" width="795" height="259" stroke="#A6A6A6" stroke-width="1.33333" stroke-miterlimit="8" fill="none"/><text font-family="Calibri,Calibri_MSFontService,sans-serif" font-weight="400" font-size="19" transform="translate(58.2727 84)">Possibilities with the report</text><rect x="37" y="329" width="12" height="325" fill="#B6D0E1"/><rect x="36.5001" y="329.5" width="796" height="325" stroke="#A6A6A6" stroke-width="1.33333" stroke-miterlimit="8" fill="none"/><text font-family="Calibri,Calibri_MSFontService,sans-serif" font-weight="400" font-size="19" transform="translate(58.941 351)">Report source, scope &amp; update frequency</text><rect x="36" y="663" width="12" height="56" fill="#D0CECE"/><rect x="36.5001" y="663.5" width="435" height="56" stroke="#A6A6A6" stroke-width="1.33333" stroke-miterlimit="8" fill="none"/><text font-family="Calibri,Calibri_MSFontService,sans-serif" font-weight="400" font-size="19" transform="translate(58.2727 684)">Training</text><rect x="480" y="663" width="11" height="56" fill="#D0CECE"/><rect x="480.5" y="663.5" width="352" height="56" stroke="#A6A6A6" stroke-width="1.33333" stroke-miterlimit="8" fill="none"/><text font-family="Calibri,Calibri_MSFontService,sans-serif" font-weight="400" font-size="19" transform="translate(502.577 684)">Report an incident</text><rect x="841" y="663" width="11" height="56" fill="#D0CECE"/><rect x="841.5" y="663.5" width="431" height="56" stroke="#A6A6A6" stroke-width="1.33333" stroke-miterlimit="8" fill="none"/><text font-family="Calibri,Calibri_MSFontService,sans-serif" font-weight="400" font-size="19" transform="translate(863.789 684)">Request new functionality</text><rect x="841" y="62" width="11" height="259" fill="#90AFC4"/><rect x="841.5" y="62.5001" width="431" height="259" stroke="#A6A6A6" stroke-width="1.33333" stroke-miterlimit="8" fill="none"/><text font-family="Calibri,Calibri_MSFontService,sans-serif" font-weight="400" font-size="19" transform="translate(863.789 84)">News</text><rect x="841" y="329" width="11" height="325" fill="#CBDEED"/><rect x="841.5" y="329.5" width="431" height="325" stroke="#A6A6A6" stroke-width="1.33333" stroke-miterlimit="8" fill="none"/><text font-family="Calibri,Calibri_MSFontService,sans-serif" font-weight="400" font-size="19" transform="translate(863.789 351)">Measurements &amp; Explanations</text></g></svg>